<svg xmlns="http://www.w3.org/2000/svg" viewBox="0 0 800 260" role="img" aria-labelledby="title desc">
  <title id="title">Fort Myers City of Palms logo</title>
  <desc id="desc">Palm tree icon next to the words Fort Myers City of Palms</desc>
  <g fill="none" fill-rule="evenodd">
    <rect width="800" height="260" fill="none"/>
    <g transform="translate(70 30)">
      <g transform="translate(0 10)">
        <path d="M86 187c2-20 5-42 5-64 0-22-3-44-5-64 0-2 3-4 7-4s7 2 7 4c-3 21-5 43-5 64 0 21 2 43 5 64 0 2-3 4-7 4s-7-2-7-4z" fill="#1C8545"/>
        <path d="M59 54c17-8 32-11 44-11 12 0 27 3 44 11-13-22-35-36-44-36-9 0-31 14-44 36z" fill="#48c16c"/>
        <path d="M67 79c14-6 26-9 36-9s22 3 36 9c-10-17-28-28-36-28s-26 11-36 28z" fill="#33b25a"/>
        <path d="M74 103c11-5 21-7 29-7s18 2 29 7c-8-12-22-20-29-20s-21 8-29 20z" fill="#23a54d"/>
        <path d="M52 58c-13-5-26-7-36-7-11 0-24 2-37 7 11-18 30-29 37-29 7 0 25 11 36 29z" fill="#4fd076"/>
        <path d="M142 58c13-5 26-7 36-7 11 0 24 2 37 7-11-18-30-29-37-29-7 0-25 11-36 29z" fill="#4fd076"/>
        <path d="M61 75c-15-6-29-8-40-8-12 0-26 2-40 8 12-19 32-31 40-31s28 12 40 31z" fill="#3cc463"/>
        <path d="M135 75c15-6 29-8 40-8 12 0 26 2 40 8-12-19-32-31-40-31s-28 12-40 31z" fill="#3cc463"/>
      </g>
      <g transform="translate(220 78)">
        <text fill="#1F4C9D" font-family="'Montserrat', 'Segoe UI', 'Helvetica Neue', Arial, sans-serif" font-size="96" font-weight="700" letter-spacing="4">
          <tspan x="0" y="90">FORT MYERS</tspan>
        </text>
      </g>
      <g transform="translate(224 160)">
        <text fill="#1C8545" font-family="'Montserrat', 'Segoe UI', 'Helvetica Neue', Arial, sans-serif" font-size="40" font-weight="600" letter-spacing="6">
          <tspan x="0" y="48">CITY OF PALMS</tspan>
        </text>
      </g>
    </g>
  </g>
</svg>
