<svg xmlns="http://www.w3.org/2000/svg" viewBox="0 0 900 220" role="img" aria-labelledby="title desc">
  <title id="title">Fort Myers City of Palms logo</title>
  <desc id="desc">Green palm tree between the words Fort Myers with City of Palms subtitle</desc>
  <defs>
    <linearGradient id="palmFrond" x1="0%" y1="0%" x2="0%" y2="100%">
      <stop offset="0%" stop-color="#84e17a" />
      <stop offset="100%" stop-color="#3fbf4f" />
    </linearGradient>
    <linearGradient id="palmTrunk" x1="0%" y1="0%" x2="0%" y2="100%">
      <stop offset="0%" stop-color="#63c06f" />
      <stop offset="100%" stop-color="#2a9f44" />
    </linearGradient>
  </defs>
  <g fill="none" fill-rule="evenodd">
    <rect width="900" height="220" fill="none" />
    <g transform="translate(70 25)">
      <g transform="translate(252 8)">
        <path
          d="M93 0c13 0 33 9 48 24-17-6-33-8-48-8s-31 2-48 8c15-15 35-24 48-24z"
          fill="url(#palmFrond)"
        />
        <path
          d="M93 12c-16 0-38 10-52 26 17-6 33-8 52-8s35 2 52 8c-14-16-36-26-52-26z"
          fill="url(#palmFrond)"
          opacity=".85"
        />
        <path
          d="M93 28c-19 0-42 11-58 30 19-7 35-9 58-9s39 2 58 9c-16-19-39-30-58-30z"
          fill="url(#palmFrond)"
          opacity=".75"
        />
        <path
          d="M93 47c-20 0-38 9-52 25 17-5 31-7 52-7s35 2 52 7c-14-16-32-25-52-25z"
          fill="url(#palmFrond)"
          opacity=".65"
        />
        <path
          d="M93 62c-16 0-27 6-37 16 13-3 23-4 37-4s24 1 37 4c-10-10-21-16-37-16z"
          fill="url(#palmFrond)"
          opacity=".55"
        />
        <path d="M90 68h6c3 41 8 81 11 121H79c3-40 8-80 11-121z" fill="url(#palmTrunk)" />
        <path
          d="M96 68c2 24 6 51 6 77 0 9-8 18-9 27-1-9-9-18-9-27 0-26 4-53 6-77h6z"
          fill="#2e7e44"
          opacity=".35"
        />
      </g>
      <g transform="translate(0 90)" fill="#0f4c9c" font-family="'Montserrat', 'Segoe UI', 'Helvetica Neue', Arial, sans-serif" font-weight="700" letter-spacing="6">
        <text font-size="86">
          <tspan x="0" y="82">FORT</tspan>
        </text>
        <text font-size="86">
          <tspan x="410" y="82">MYERS</tspan>
        </text>
      </g>
      <g transform="translate(140 160)">
        <text fill="#2da357" font-family="'Montserrat', 'Segoe UI', 'Helvetica Neue', Arial, sans-serif" font-size="40" font-weight="600" letter-spacing="6">
          <tspan x="0" y="40">CITY OF PALMS</tspan>
        </text>
      </g>
    </g>
  </g>
</svg>
