<svg xmlns="http://www.w3.org/2000/svg" viewBox="0 0 900 280" role="img" aria-labelledby="title desc">
  <title id="title">Fort Myers City of Palms logo</title>
  <desc id="desc">Blue Fort Myers wordmark with green palm tree and City of Palms tagline</desc>
  <defs>
    <linearGradient id="leafGradient" x1="0%" y1="0%" x2="0%" y2="100%">
      <stop offset="0%" stop-color="#52d6b2" />
      <stop offset="100%" stop-color="#2cb57d" />
    </linearGradient>
    <linearGradient id="trunkGradient" x1="0%" y1="0%" x2="0%" y2="100%">
      <stop offset="0%" stop-color="#41a86c" />
      <stop offset="100%" stop-color="#1f6d46" />
    </linearGradient>
  </defs>
  <g fill="#0f4cc3" font-family="'Space Grotesk', 'Inter', 'Segoe UI', sans-serif" font-weight="700">
    <text x="150" y="150" font-size="120" letter-spacing="12">FORT</text>
    <text x="470" y="150" font-size="120" letter-spacing="12">MYERS</text>
  </g>
  <g transform="translate(440 45)">
    <path fill="url(#leafGradient)" d="M20 70 Q60 20 120 40 Q78 46 54 78 Z" />
    <path fill="url(#leafGradient)" d="M20 70 Q40 28 0 0 Q0 42 8 74 Z" />
    <path fill="url(#leafGradient)" d="M20 70 Q-20 28 -80 44 Q-26 50 4 78 Z" />
    <path fill="url(#leafGradient)" d="M20 70 Q52 58 98 92 Q40 84 18 100 Z" />
    <path fill="url(#leafGradient)" d="M20 70 Q-8 58 -60 96 Q4 86 22 100 Z" />
    <path fill="url(#trunkGradient)" d="M8 92 h24 l-6 108 c-0.6 10 -11 10 -12 0 Z" />
    <ellipse cx="20" cy="200" rx="46" ry="12" fill="#2cb57d" opacity="0.3" />
  </g>
  <text x="450" y="220" text-anchor="middle" font-family="'Inter', 'Segoe UI', sans-serif" font-size="42" font-weight="600" letter-spacing="8" fill="#2cb57d">
    CITY OF PALMS
  </text>
</svg>
